<?xml version="1.0" encoding="UTF-8"?>
<svg id="Layer_2" data-name="Layer 2" xmlns="http://www.w3.org/2000/svg" xmlns:xlink="http://www.w3.org/1999/xlink" viewBox="0 0 509.53 200.1">
  <defs>
    <style>
      .cls-1 {
        fill: url(#linear-gradient-2);
      }

      .cls-2 {
        fill: #622a71;
      }

      .cls-3 {
        fill: none;
      }

      .cls-4 {
        fill: #353535;
      }

      .cls-5 {
        fill: url(#linear-gradient);
      }
    </style>
    <linearGradient id="linear-gradient" x1="-5041.39" y1="-62.89" x2="-5079.95" y2="-40.63" gradientTransform="translate(-4985.97 25.4) rotate(-180)" gradientUnits="userSpaceOnUse">
      <stop offset="0" stop-color="#622a71"/>
      <stop offset=".32" stop-color="#60296f"/>
      <stop offset=".43" stop-color="#5a2668"/>
      <stop offset=".51" stop-color="#50225c"/>
      <stop offset=".58" stop-color="#411c4b"/>
      <stop offset=".63" stop-color="#2e1435"/>
      <stop offset=".65" stop-color="#27112d"/>
    </linearGradient>
    <linearGradient id="linear-gradient-2" x1="119.71" y1="111.81" x2="81.12" y2="134.09" gradientTransform="matrix(1, 0, 0, 1, 0, 0)" xlink:href="#linear-gradient"/>
  </defs>
  <g id="Layer_1-2" data-name="Layer 1">
    <g>
      <g>
        <g>
          <polygon class="cls-5" points="64.68 104.35 90.37 59.78 67.72 59.78 53.36 84.74 64.68 104.35"/>
          <polygon class="cls-2" points="96.01 109.2 107.33 89.59 90.37 59.78 67.72 59.78 96.01 109.2"/>
        </g>
        <g>
          <polygon class="cls-1" points="110.44 95.76 84.71 140.32 107.4 140.32 121.77 115.37 110.44 95.76"/>
          <polygon class="cls-2" points="79.12 90.9 67.8 110.51 84.71 140.32 107.4 140.32 79.12 90.9"/>
        </g>
      </g>
      <g>
        <rect class="cls-3" width="53.36" height="200.1"/>
        <rect class="cls-3" width="509.53" height="53.36"/>
        <rect class="cls-3" y="146.74" width="509.53" height="53.36"/>
        <rect class="cls-3" x="456.17" width="53.36" height="200.1"/>
      </g>
      <g>
        <path class="cls-4" d="M165.01,111.77v-28.64h6.52l.11,5.87-1.25,.65c.36-1.3,1.07-2.49,2.12-3.56,1.05-1.07,2.3-1.93,3.75-2.58,1.45-.65,2.93-.98,4.46-.98,2.17,0,3.99,.43,5.46,1.3,1.47,.87,2.57,2.17,3.32,3.91,.74,1.74,1.11,3.91,1.11,6.52v17.5h-6.69v-17.01c0-1.45-.2-2.65-.6-3.61-.4-.96-1.01-1.67-1.85-2.12-.83-.45-1.85-.66-3.04-.62-.98,0-1.88,.15-2.69,.46-.82,.31-1.52,.74-2.12,1.3-.6,.56-1.07,1.21-1.41,1.93-.34,.73-.52,1.52-.52,2.39v17.28h-6.69Z"/>
        <path class="cls-4" d="M211.54,112.31c-3.01,0-5.66-.63-7.96-1.9-2.3-1.27-4.09-3-5.38-5.19-1.29-2.19-1.93-4.7-1.93-7.53,0-2.25,.36-4.29,1.09-6.14,.72-1.85,1.73-3.45,3.02-4.81,1.29-1.36,2.83-2.41,4.62-3.15,1.79-.74,3.76-1.11,5.9-1.11,1.88,0,3.64,.36,5.27,1.09,1.63,.73,3.04,1.71,4.24,2.96,1.2,1.25,2.11,2.74,2.74,4.46,.63,1.72,.93,3.6,.9,5.63l-.05,2.34h-23.21l-1.25-4.57h18.86l-.87,.92v-1.2c-.11-1.12-.47-2.11-1.09-2.96-.62-.85-1.4-1.52-2.36-2.01-.96-.49-2.02-.73-3.18-.73-1.78,0-3.27,.34-4.48,1.03-1.21,.69-2.13,1.68-2.74,2.96-.62,1.29-.92,2.89-.92,4.81s.39,3.46,1.17,4.84c.78,1.38,1.88,2.44,3.32,3.18,1.43,.74,3.11,1.11,5.03,1.11,1.34,0,2.57-.22,3.7-.65,1.12-.43,2.34-1.21,3.64-2.34l3.32,4.62c-.98,.91-2.09,1.68-3.34,2.31-1.25,.63-2.56,1.13-3.94,1.49-1.38,.36-2.74,.54-4.08,.54Z"/>
        <path class="cls-4" d="M236.16,111.77l-9.62-28.64,6.85-.05,6.41,20.44-1.2-.11,6.96-15.98h4.02l7.12,15.98-1.41,.16,6.47-20.44h6.85l-9.67,28.64h-4.78l-7.34-17.17,1.03,.11-6.96,17.07h-4.73Z"/>
        <path class="cls-4" d="M273.71,89.32v-6.2h18.59v6.2h-18.59Zm5.65,22.45v-35.93h6.69v35.93h-6.69Z"/>
        <path class="cls-4" d="M310.24,112.31c-2.86,0-5.42-.64-7.66-1.93-2.25-1.29-4.02-3.05-5.33-5.3-1.3-2.25-1.96-4.8-1.96-7.66s.65-5.42,1.96-7.66c1.3-2.25,3.08-4.01,5.33-5.3,2.25-1.29,4.8-1.93,7.66-1.93s5.36,.64,7.61,1.93c2.25,1.29,4.01,3.05,5.3,5.3,1.29,2.25,1.93,4.8,1.93,7.66s-.64,5.42-1.93,7.66c-1.29,2.25-3.05,4.01-5.3,5.3-2.25,1.29-4.78,1.93-7.61,1.93Zm0-5.92c1.56,0,2.94-.4,4.16-1.2,1.21-.8,2.17-1.87,2.88-3.21,.71-1.34,1.04-2.86,1.01-4.57,.04-1.74-.3-3.28-1.01-4.62-.71-1.34-1.67-2.4-2.88-3.18-1.21-.78-2.6-1.17-4.16-1.17s-2.96,.39-4.21,1.17c-1.25,.78-2.22,1.85-2.91,3.21-.69,1.36-1.03,2.89-1.03,4.59s.34,3.23,1.03,4.57c.69,1.34,1.66,2.41,2.91,3.21,1.25,.8,2.65,1.2,4.21,1.2Z"/>
        <path class="cls-4" d="M331.05,111.77v-28.64h6.52l.11,5.87-1.25,.65c.36-1.3,1.07-2.49,2.12-3.56,1.05-1.07,2.3-1.93,3.75-2.58,1.45-.65,2.93-.98,4.46-.98,2.17,0,3.99,.43,5.46,1.3,1.47,.87,2.57,2.17,3.32,3.91,.74,1.74,1.11,3.91,1.11,6.52v17.5h-6.69v-17.01c0-1.45-.2-2.65-.6-3.61-.4-.96-1.01-1.67-1.85-2.12-.83-.45-1.85-.66-3.04-.62-.98,0-1.88,.15-2.69,.46-.82,.31-1.52,.74-2.12,1.3-.6,.56-1.07,1.21-1.41,1.93-.34,.73-.52,1.52-.52,2.39v17.28h-6.69Z"/>
        <path class="cls-4" d="M368.23,124.27l6.09-14.08,.05,4.46-14.13-31.52h7.72l7.88,18.7c.25,.47,.51,1.1,.76,1.88,.25,.78,.47,1.55,.65,2.31l-1.36,.44c.25-.69,.52-1.42,.82-2.2,.29-.78,.56-1.58,.82-2.42l6.74-18.7h7.77l-11.96,28.64-4.89,12.5h-6.96Z"/>
        <path class="cls-4" d="M406.49,112.31c-2.36,0-4.49-.65-6.41-1.96-1.92-1.3-3.46-3.08-4.62-5.33-1.16-2.25-1.74-4.8-1.74-7.66s.58-5.42,1.74-7.66c1.16-2.25,2.74-4,4.73-5.27,1.99-1.27,4.24-1.9,6.74-1.9,1.45,0,2.77,.21,3.97,.62,1.2,.42,2.25,1.01,3.15,1.77,.91,.76,1.66,1.63,2.26,2.61,.6,.98,1.01,2.03,1.22,3.15l-1.47-.38v-7.17h6.74v28.64h-6.79v-6.85l1.58-.27c-.25,.98-.72,1.93-1.39,2.85-.67,.92-1.5,1.74-2.5,2.45-1,.71-2.1,1.28-3.32,1.71-1.21,.44-2.51,.65-3.89,.65Zm1.85-5.92c1.56,0,2.94-.38,4.13-1.14,1.2-.76,2.13-1.82,2.8-3.18,.67-1.36,1.01-2.93,1.01-4.7s-.34-3.28-1.01-4.62c-.67-1.34-1.6-2.39-2.8-3.15-1.2-.76-2.57-1.14-4.13-1.14s-2.93,.38-4.1,1.14c-1.18,.76-2.09,1.81-2.74,3.15-.65,1.34-.98,2.88-.98,4.62s.33,3.34,.98,4.7c.65,1.36,1.57,2.42,2.74,3.18,1.18,.76,2.55,1.14,4.1,1.14Z"/>
        <path class="cls-4" d="M430.57,111.77v-28.64h6.52l.11,5.87-1.25,.65c.36-1.3,1.07-2.49,2.12-3.56,1.05-1.07,2.3-1.93,3.75-2.58,1.45-.65,2.93-.98,4.46-.98,2.17,0,3.99,.43,5.46,1.3,1.47,.87,2.57,2.17,3.32,3.91,.74,1.74,1.11,3.91,1.11,6.52v17.5h-6.69v-17.01c0-1.45-.2-2.65-.6-3.61-.4-.96-1.01-1.67-1.85-2.12-.83-.45-1.85-.66-3.04-.62-.98,0-1.88,.15-2.69,.46-.82,.31-1.52,.74-2.12,1.3-.6,.56-1.07,1.21-1.41,1.93-.34,.73-.52,1.52-.52,2.39v17.28h-6.69Z"/>
      </g>
    </g>
  </g>
</svg>